<svg width="124" height="18" viewBox="0 0 124 18" fill="none" xmlns="http://www.w3.org/2000/svg">
<path d="M9.09923 17.4257C7.38662 17.4257 5.83407 17.0567 4.44158 16.3186C3.06509 15.5644 1.9767 14.5295 1.17642 13.2137C0.392139 11.8819 0 10.3816 0 8.71287C0 7.0441 0.392139 5.55185 1.17642 4.23609C1.9767 2.90429 3.06509 1.86934 4.44158 1.13123C5.83407 0.377076 7.39463 0 9.12324 0C10.5798 0 11.8922 0.256732 13.0606 0.770198C14.2451 1.28366 15.2374 2.02177 16.0377 2.98452L13.5408 5.29511C12.4044 3.97936 10.9959 3.32148 9.31531 3.32148C8.27494 3.32148 7.34661 3.55414 6.53032 4.01947C5.71403 4.46875 5.0738 5.10256 4.60964 5.9209C4.16148 6.73923 3.9374 7.66989 3.9374 8.71287C3.9374 9.75584 4.16148 10.6865 4.60964 11.5048C5.0738 12.3232 5.71403 12.965 6.53032 13.4303C7.34661 13.8796 8.27494 14.1043 9.31531 14.1043C10.9959 14.1043 12.4044 13.4384 13.5408 12.1066L16.0377 14.4171C15.2374 15.3959 14.2451 16.1421 13.0606 16.6555C11.8762 17.169 10.5557 17.4257 9.09923 17.4257Z" fill="white"/>
<path d="M25.9902 17.4257C23.5893 17.4257 21.7166 16.7598 20.3722 15.428C19.0437 14.0962 18.3795 12.1948 18.3795 9.72375V0.288823H22.2688V9.57934C22.2688 12.596 23.5173 14.1043 26.0142 14.1043C27.2306 14.1043 28.1589 13.7432 28.7992 13.0212C29.4394 12.2831 29.7595 11.1358 29.7595 9.57934V0.288823H33.6009V9.72375C33.6009 12.1948 32.9286 14.0962 31.5842 15.428C30.2557 16.7598 28.391 17.4257 25.9902 17.4257Z" fill="white"/>
<path d="M49.7847 8.37591C50.745 8.68078 51.4973 9.19424 52.0415 9.9163C52.5857 10.6223 52.8578 11.4968 52.8578 12.5398C52.8578 14.016 52.2816 15.1553 51.1292 15.9575C49.9928 16.7438 48.3282 17.1369 46.1354 17.1369H37.4443V0.288823H45.6552C47.7039 0.288823 49.2725 0.681945 50.3609 1.46819C51.4653 2.25443 52.0175 3.32148 52.0175 4.66933C52.0175 5.48766 51.8174 6.21775 51.4173 6.85958C51.0331 7.50141 50.4889 8.00685 49.7847 8.37591ZM41.3097 3.2252V7.19654H45.175C46.1354 7.19654 46.8636 7.02806 47.3598 6.6911C47.856 6.35414 48.1041 5.85672 48.1041 5.19884C48.1041 4.54096 47.856 4.05156 47.3598 3.73065C46.8636 3.39369 46.1354 3.2252 45.175 3.2252H41.3097ZM45.8473 14.2005C46.8716 14.2005 47.6399 14.032 48.1521 13.6951C48.6803 13.3581 48.9444 12.8366 48.9444 12.1306C48.9444 10.7346 47.912 10.0366 45.8473 10.0366H41.3097V14.2005H45.8473Z" fill="white"/>
<path d="M66.8703 13.5266H59.0675L57.579 17.1369H53.5936L61.0842 0.288823H64.9256L72.4403 17.1369H68.3588L66.8703 13.5266ZM65.6459 10.5662L62.9809 4.11575L60.316 10.5662H65.6459Z" fill="white"/>
<path d="M76.8211 3.46589H71.4432V0.288823H86.0884V3.46589H80.7105V17.1369H76.8211V3.46589Z" fill="white"/>
<path d="M96.0855 17.4257C94.3409 17.4257 92.7643 17.0487 91.3558 16.2945C89.9633 15.5404 88.8669 14.5054 88.0666 13.1896C87.2824 11.8578 86.8902 10.3656 86.8902 8.71287C86.8902 7.06015 87.2824 5.57591 88.0666 4.26016C88.8669 2.92836 89.9633 1.88538 91.3558 1.13123C92.7643 0.377076 94.3409 0 96.0855 0C97.8301 0 99.3987 0.377076 100.791 1.13123C102.184 1.88538 103.28 2.92836 104.08 4.26016C104.881 5.57591 105.281 7.06015 105.281 8.71287C105.281 10.3656 104.881 11.8578 104.08 13.1896C103.28 14.5054 102.184 15.5404 100.791 16.2945C99.3987 17.0487 97.8301 17.4257 96.0855 17.4257ZM96.0855 14.1043C97.0778 14.1043 97.9742 13.8796 98.7744 13.4303C99.5747 12.965 100.199 12.3232 100.647 11.5048C101.111 10.6865 101.343 9.75584 101.343 8.71287C101.343 7.66989 101.111 6.73923 100.647 5.9209C100.199 5.10256 99.5747 4.46875 98.7744 4.01947C97.9742 3.55414 97.0778 3.32148 96.0855 3.32148C95.0931 3.32148 94.1968 3.55414 93.3965 4.01947C92.5962 4.46875 91.964 5.10256 91.4999 5.9209C91.0517 6.73923 90.8276 7.66989 90.8276 8.71287C90.8276 9.75584 91.0517 10.6865 91.4999 11.5048C91.964 12.3232 92.5962 12.965 93.3965 13.4303C94.1968 13.8796 95.0931 14.1043 96.0855 14.1043Z" fill="white"/>
<path d="M118.912 17.1369L115.67 12.4435H115.478H112.093V17.1369H108.204V0.288823H115.478C116.967 0.288823 118.255 0.537533 119.344 1.03495C120.448 1.53237 121.296 2.23839 121.889 3.153C122.481 4.06761 122.777 5.1507 122.777 6.40227C122.777 7.65384 122.473 8.73694 121.865 9.65155C121.272 10.5501 120.424 11.2401 119.32 11.7215L123.089 17.1369H118.912ZM118.84 6.40227C118.84 5.45557 118.535 4.73351 117.927 4.23609C117.319 3.72262 116.431 3.46589 115.262 3.46589H112.093V9.33865H115.262C116.431 9.33865 117.319 9.08192 117.927 8.56846C118.535 8.05499 118.84 7.33293 118.84 6.40227Z" fill="white"/>
</svg>
