<svg width="113" height="11" viewBox="0 0 113 11" fill="none" xmlns="http://www.w3.org/2000/svg">
<path d="M0.335971 9.93994C0.242637 9.93994 0.163304 9.90727 0.0979704 9.84194C0.0326371 9.77661 -2.9549e-05 9.69727 -2.9549e-05 9.60394V0.489941C-2.9549e-05 0.387274 0.0326371 0.303274 0.0979704 0.237941C0.163304 0.172608 0.242637 0.139941 0.335971 0.139941H3.96197C5.0913 0.139941 5.98264 0.401274 6.63597 0.923941C7.2893 1.44661 7.61597 2.20727 7.61597 3.20594C7.61597 3.89661 7.4433 4.47061 7.09797 4.92794C6.76197 5.38527 6.3093 5.71661 5.73997 5.92194L7.78397 9.49194C7.81197 9.54794 7.82597 9.59927 7.82597 9.64594C7.82597 9.72994 7.7933 9.79994 7.72797 9.85594C7.67197 9.91194 7.60664 9.93994 7.53197 9.93994H6.25797C6.0993 9.93994 5.97797 9.89794 5.89397 9.81394C5.80997 9.72994 5.74464 9.64594 5.69797 9.56194L3.89197 6.24394H1.94597V9.60394C1.94597 9.69727 1.9133 9.77661 1.84797 9.84194C1.79197 9.90727 1.71264 9.93994 1.60997 9.93994H0.335971ZM1.94597 4.66194H3.91997C4.4893 4.66194 4.91397 4.53594 5.19397 4.28394C5.47397 4.02261 5.61397 3.65861 5.61397 3.19194C5.61397 2.72527 5.47397 2.36127 5.19397 2.09994C4.9233 1.82927 4.49864 1.69394 3.91997 1.69394H1.94597V4.66194ZM11.1559 9.93994C11.0626 9.93994 10.9832 9.90727 10.9179 9.84194C10.8526 9.77661 10.8199 9.69727 10.8199 9.60394V0.489941C10.8199 0.387274 10.8526 0.303274 10.9179 0.237941C10.9832 0.172608 11.0626 0.139941 11.1559 0.139941H17.3159C17.4186 0.139941 17.5026 0.172608 17.5679 0.237941C17.6332 0.303274 17.6659 0.387274 17.6659 0.489941V1.41394C17.6659 1.50727 17.6332 1.58661 17.5679 1.65194C17.5026 1.71727 17.4186 1.74994 17.3159 1.74994H12.7099V4.22794H17.0079C17.1106 4.22794 17.1946 4.26061 17.2599 4.32594C17.3252 4.38194 17.3579 4.46127 17.3579 4.56394V5.43194C17.3579 5.53461 17.3252 5.61861 17.2599 5.68394C17.1946 5.73994 17.1106 5.76794 17.0079 5.76794H12.7099V8.32994H17.4279C17.5306 8.32994 17.6146 8.36261 17.6799 8.42794C17.7452 8.49327 17.7779 8.57727 17.7779 8.67994V9.60394C17.7779 9.69727 17.7452 9.77661 17.6799 9.84194C17.6146 9.90727 17.5306 9.93994 17.4279 9.93994H11.1559ZM24.6548 10.0799C23.7962 10.0799 23.0635 9.93061 22.4568 9.63194C21.8595 9.33327 21.3928 8.90394 21.0568 8.34394C20.7302 7.77461 20.5528 7.09794 20.5248 6.31394C20.5155 5.91261 20.5108 5.48327 20.5108 5.02594C20.5108 4.55927 20.5155 4.12061 20.5248 3.70994C20.5528 2.93527 20.7302 2.27261 21.0568 1.72194C21.3928 1.17127 21.8642 0.746608 22.4708 0.447941C23.0868 0.149274 23.8148 -5.91278e-05 24.6548 -5.91278e-05C25.3362 -5.91278e-05 25.9335 0.0932741 26.4468 0.279941C26.9602 0.457274 27.3848 0.690608 27.7208 0.979941C28.0662 1.25994 28.3228 1.56327 28.4908 1.88994C28.6682 2.21661 28.7615 2.51994 28.7708 2.79994C28.7802 2.88394 28.7568 2.95394 28.7008 3.00994C28.6448 3.06594 28.5702 3.09394 28.4768 3.09394H27.0348C26.9415 3.09394 26.8715 3.07527 26.8248 3.03794C26.7782 3.00061 26.7362 2.94461 26.6988 2.86994C26.6242 2.67394 26.5075 2.48261 26.3488 2.29594C26.1902 2.09994 25.9755 1.93661 25.7048 1.80594C25.4342 1.67527 25.0842 1.60994 24.6548 1.60994C24.0202 1.60994 23.5115 1.77794 23.1288 2.11394C22.7555 2.44994 22.5548 3.00527 22.5268 3.77994C22.4988 4.59194 22.4988 5.41327 22.5268 6.24394C22.5548 7.03727 22.7602 7.60661 23.1428 7.95194C23.5348 8.29727 24.0482 8.46994 24.6828 8.46994C25.1028 8.46994 25.4762 8.39527 25.8028 8.24594C26.1388 8.09661 26.4002 7.86327 26.5868 7.54594C26.7828 7.22861 26.8808 6.82261 26.8808 6.32794V5.89394H25.1728C25.0795 5.89394 25.0002 5.86127 24.9348 5.79594C24.8695 5.73061 24.8368 5.64661 24.8368 5.54394V4.80194C24.8368 4.69927 24.8695 4.61527 24.9348 4.54994C25.0002 4.48461 25.0795 4.45194 25.1728 4.45194H28.5188C28.6215 4.45194 28.7008 4.48461 28.7568 4.54994C28.8222 4.61527 28.8548 4.69927 28.8548 4.80194V6.27194C28.8548 7.05594 28.6822 7.73261 28.3368 8.30194C28.0008 8.87127 27.5155 9.30994 26.8808 9.61794C26.2555 9.92594 25.5135 10.0799 24.6548 10.0799ZM32.3856 9.93994C32.2922 9.93994 32.2129 9.90727 32.1476 9.84194C32.0822 9.77661 32.0496 9.69727 32.0496 9.60394V0.475941C32.0496 0.382607 32.0822 0.303274 32.1476 0.237941C32.2129 0.172608 32.2922 0.139941 32.3856 0.139941H33.7016C33.8042 0.139941 33.8836 0.172608 33.9396 0.237941C34.0049 0.303274 34.0376 0.382607 34.0376 0.475941V9.60394C34.0376 9.69727 34.0049 9.77661 33.9396 9.84194C33.8836 9.90727 33.8042 9.93994 33.7016 9.93994H32.3856ZM41.0352 10.0799C40.1672 10.0799 39.4392 9.95394 38.8512 9.70194C38.2725 9.44061 37.8292 9.10461 37.5212 8.69394C37.2225 8.27394 37.0638 7.83527 37.0452 7.37794C37.0452 7.29394 37.0732 7.22394 37.1292 7.16794C37.1852 7.11194 37.2552 7.08394 37.3392 7.08394H38.5852C38.7065 7.08394 38.7952 7.11194 38.8512 7.16794C38.9165 7.21461 38.9725 7.27527 39.0192 7.34994C39.0752 7.52727 39.1825 7.70461 39.3412 7.88194C39.4998 8.04994 39.7145 8.18994 39.9852 8.30194C40.2652 8.41394 40.6152 8.46994 41.0352 8.46994C41.7072 8.46994 42.2065 8.35794 42.5332 8.13394C42.8692 7.90994 43.0372 7.60661 43.0372 7.22394C43.0372 6.95327 42.9485 6.73861 42.7712 6.57994C42.5938 6.41194 42.3185 6.26261 41.9452 6.13194C41.5812 5.99194 41.0958 5.84727 40.4892 5.69794C39.7892 5.52994 39.2012 5.32927 38.7252 5.09594C38.2585 4.85327 37.9038 4.54994 37.6612 4.18594C37.4278 3.82194 37.3112 3.35994 37.3112 2.79994C37.3112 2.25861 37.4558 1.77794 37.7452 1.35794C38.0438 0.937941 38.4638 0.606608 39.0052 0.363941C39.5558 0.121274 40.2092 -5.91278e-05 40.9652 -5.91278e-05C41.5718 -5.91278e-05 42.1085 0.0839409 42.5752 0.251941C43.0418 0.410608 43.4292 0.625274 43.7372 0.895941C44.0452 1.15727 44.2785 1.44194 44.4372 1.74994C44.6052 2.04861 44.6938 2.34261 44.7032 2.63194C44.7032 2.70661 44.6752 2.77661 44.6192 2.84194C44.5725 2.89794 44.5025 2.92594 44.4092 2.92594H43.1072C43.0325 2.92594 42.9578 2.90727 42.8832 2.86994C42.8085 2.83261 42.7478 2.76261 42.7012 2.65994C42.6452 2.37061 42.4632 2.12327 42.1552 1.91794C41.8472 1.71261 41.4505 1.60994 40.9652 1.60994C40.4612 1.60994 40.0552 1.70327 39.7472 1.88994C39.4392 2.07661 39.2852 2.36594 39.2852 2.75794C39.2852 3.01927 39.3598 3.23861 39.5092 3.41594C39.6678 3.58394 39.9152 3.73327 40.2512 3.86394C40.5965 3.99461 41.0492 4.13461 41.6092 4.28394C42.4025 4.46127 43.0512 4.66661 43.5552 4.89994C44.0592 5.13327 44.4278 5.43194 44.6612 5.79594C44.8945 6.15061 45.0112 6.60327 45.0112 7.15394C45.0112 7.76994 44.8432 8.29727 44.5072 8.73594C44.1805 9.16527 43.7185 9.49661 43.1212 9.72994C42.5238 9.96327 41.8285 10.0799 41.0352 10.0799ZM50.3982 9.93994C50.3049 9.93994 50.2256 9.90727 50.1602 9.84194C50.0949 9.77661 50.0622 9.69727 50.0622 9.60394V1.86194H47.4722C47.3789 1.86194 47.2996 1.82927 47.2342 1.76394C47.1689 1.69861 47.1362 1.61927 47.1362 1.52594V0.489941C47.1362 0.387274 47.1689 0.303274 47.2342 0.237941C47.2996 0.172608 47.3789 0.139941 47.4722 0.139941H54.6122C54.7149 0.139941 54.7989 0.172608 54.8642 0.237941C54.9296 0.303274 54.9622 0.387274 54.9622 0.489941V1.52594C54.9622 1.61927 54.9296 1.69861 54.8642 1.76394C54.7989 1.82927 54.7149 1.86194 54.6122 1.86194H52.0362V9.60394C52.0362 9.69727 52.0036 9.77661 51.9382 9.84194C51.8729 9.90727 51.7889 9.93994 51.6862 9.93994H50.3982ZM58.1188 9.93994C58.0255 9.93994 57.9461 9.90727 57.8808 9.84194C57.8155 9.77661 57.7828 9.69727 57.7828 9.60394V0.489941C57.7828 0.387274 57.8155 0.303274 57.8808 0.237941C57.9461 0.172608 58.0255 0.139941 58.1188 0.139941H61.7448C62.8741 0.139941 63.7655 0.401274 64.4188 0.923941C65.0721 1.44661 65.3988 2.20727 65.3988 3.20594C65.3988 3.89661 65.2261 4.47061 64.8808 4.92794C64.5448 5.38527 64.0921 5.71661 63.5228 5.92194L65.5668 9.49194C65.5948 9.54794 65.6088 9.59927 65.6088 9.64594C65.6088 9.72994 65.5761 9.79994 65.5108 9.85594C65.4548 9.91194 65.3895 9.93994 65.3148 9.93994H64.0408C63.8821 9.93994 63.7608 9.89794 63.6768 9.81394C63.5928 9.72994 63.5275 9.64594 63.4808 9.56194L61.6748 6.24394H59.7288V9.60394C59.7288 9.69727 59.6961 9.77661 59.6308 9.84194C59.5748 9.90727 59.4955 9.93994 59.3928 9.93994H58.1188ZM59.7288 4.66194H61.7028C62.2721 4.66194 62.6968 4.53594 62.9768 4.28394C63.2568 4.02261 63.3968 3.65861 63.3968 3.19194C63.3968 2.72527 63.2568 2.36127 62.9768 2.09994C62.7061 1.82927 62.2815 1.69394 61.7028 1.69394H59.7288V4.66194ZM68.0007 9.93994C67.926 9.93994 67.856 9.91194 67.7907 9.85594C67.7347 9.79994 67.7067 9.72994 67.7067 9.64594C67.7067 9.60861 67.716 9.56661 67.7347 9.51994L71.1087 0.489941C71.1367 0.396607 71.188 0.317274 71.2627 0.251941C71.3467 0.177274 71.4587 0.139941 71.5987 0.139941H73.1247C73.2647 0.139941 73.372 0.177274 73.4467 0.251941C73.5214 0.317274 73.5774 0.396607 73.6147 0.489941L76.9887 9.51994C76.998 9.56661 77.0027 9.60861 77.0027 9.64594C77.0027 9.72994 76.9747 9.79994 76.9187 9.85594C76.8627 9.91194 76.7974 9.93994 76.7227 9.93994H75.5047C75.374 9.93994 75.276 9.91194 75.2107 9.85594C75.1547 9.79061 75.1174 9.72994 75.0987 9.67394L74.4407 7.96594H70.2827L69.6247 9.67394C69.606 9.72994 69.564 9.79061 69.4987 9.85594C69.4427 9.91194 69.3494 9.93994 69.2187 9.93994H68.0007ZM70.7727 6.35594H73.9507L72.3547 2.02994L70.7727 6.35594ZM81.1763 9.93994C81.083 9.93994 81.0037 9.90727 80.9383 9.84194C80.873 9.77661 80.8403 9.69727 80.8403 9.60394V1.86194H78.2503C78.157 1.86194 78.0777 1.82927 78.0123 1.76394C77.947 1.69861 77.9143 1.61927 77.9143 1.52594V0.489941C77.9143 0.387274 77.947 0.303274 78.0123 0.237941C78.0777 0.172608 78.157 0.139941 78.2503 0.139941H85.3903C85.493 0.139941 85.577 0.172608 85.6423 0.237941C85.7077 0.303274 85.7403 0.387274 85.7403 0.489941V1.52594C85.7403 1.61927 85.7077 1.69861 85.6423 1.76394C85.577 1.82927 85.493 1.86194 85.3903 1.86194H82.8143V9.60394C82.8143 9.69727 82.7817 9.77661 82.7163 9.84194C82.651 9.90727 82.567 9.93994 82.4643 9.93994H81.1763ZM88.8969 9.93994C88.8036 9.93994 88.7242 9.90727 88.6589 9.84194C88.5936 9.77661 88.5609 9.69727 88.5609 9.60394V0.475941C88.5609 0.382607 88.5936 0.303274 88.6589 0.237941C88.7242 0.172608 88.8036 0.139941 88.8969 0.139941H90.2129C90.3156 0.139941 90.3949 0.172608 90.4509 0.237941C90.5162 0.303274 90.5489 0.382607 90.5489 0.475941V9.60394C90.5489 9.69727 90.5162 9.77661 90.4509 9.84194C90.3949 9.90727 90.3156 9.93994 90.2129 9.93994H88.8969ZM97.9105 10.0799C97.0798 10.0799 96.3658 9.94461 95.7685 9.67394C95.1712 9.39394 94.7045 8.96927 94.3685 8.39994C94.0325 7.82127 93.8505 7.10261 93.8225 6.24394C93.8132 5.84261 93.8085 5.44594 93.8085 5.05394C93.8085 4.66194 93.8132 4.26061 93.8225 3.84994C93.8505 3.00061 94.0372 2.29127 94.3825 1.72194C94.7278 1.15261 95.1992 0.723275 95.7965 0.433941C96.4032 0.144608 97.1078 -5.91278e-05 97.9105 -5.91278e-05C98.7132 -5.91278e-05 99.4178 0.144608 100.025 0.433941C100.631 0.723275 101.107 1.15261 101.453 1.72194C101.798 2.29127 101.985 3.00061 102.013 3.84994C102.031 4.26061 102.041 4.66194 102.041 5.05394C102.041 5.44594 102.031 5.84261 102.013 6.24394C101.985 7.10261 101.803 7.82127 101.467 8.39994C101.131 8.96927 100.659 9.39394 100.053 9.67394C99.4552 9.94461 98.7412 10.0799 97.9105 10.0799ZM97.9105 8.46994C98.5172 8.46994 99.0118 8.29261 99.3945 7.93794C99.7772 7.57394 99.9825 6.98594 100.011 6.17394C100.029 5.76327 100.039 5.38527 100.039 5.03994C100.039 4.68527 100.029 4.30727 100.011 3.90594C99.9918 3.36461 99.8892 2.92594 99.7025 2.58994C99.5252 2.24461 99.2825 1.99727 98.9745 1.84794C98.6665 1.68927 98.3118 1.60994 97.9105 1.60994C97.5185 1.60994 97.1685 1.68927 96.8605 1.84794C96.5525 1.99727 96.3052 2.24461 96.1185 2.58994C95.9412 2.92594 95.8432 3.36461 95.8245 3.90594C95.8152 4.30727 95.8105 4.68527 95.8105 5.03994C95.8105 5.38527 95.8152 5.76327 95.8245 6.17394C95.8525 6.98594 96.0578 7.57394 96.4405 7.93794C96.8232 8.29261 97.3132 8.46994 97.9105 8.46994ZM105.615 9.93994C105.522 9.93994 105.442 9.90727 105.377 9.84194C105.312 9.77661 105.279 9.69727 105.279 9.60394V0.489941C105.279 0.387274 105.312 0.303274 105.377 0.237941C105.442 0.172608 105.522 0.139941 105.615 0.139941H106.693C106.824 0.139941 106.917 0.172608 106.973 0.237941C107.038 0.293941 107.08 0.335941 107.099 0.363941L111.131 6.63594V0.489941C111.131 0.387274 111.159 0.303274 111.215 0.237941C111.28 0.172608 111.364 0.139941 111.467 0.139941H112.643C112.746 0.139941 112.83 0.172608 112.895 0.237941C112.96 0.303274 112.993 0.387274 112.993 0.489941V9.58994C112.993 9.69261 112.96 9.77661 112.895 9.84194C112.83 9.90727 112.75 9.93994 112.657 9.93994H111.565C111.434 9.93994 111.341 9.90727 111.285 9.84194C111.229 9.77661 111.187 9.73461 111.159 9.71594L107.141 3.58394V9.60394C107.141 9.69727 107.108 9.77661 107.043 9.84194C106.978 9.90727 106.894 9.93994 106.791 9.93994H105.615Z" fill="white"/>
</svg>
